{"title":"T in the Park 2016 - Craig David's TS5","uid":15415180,"size":1102296710,"categoryP":"video","categoryS":"hd___tv_shows","magnet":"?xt=urn:btih:419b3d9066c33505826db8bf860a98afe722bbfe&amp;dn=T+in+the+Park+2016+-+Craig+David%27s+TS5&amp;tr=udp%3A%2F%2Ftracker.leechers-paradise.org%3A6969&amp;tr=udp%3A%2F%2Fzer0day.ch%3A1337&amp;tr=udp%3A%2F%2Fopen.demonii.com%3A1337&amp;tr=udp%3A%2F%2Ftracker.coppersurfer.tk%3A6969&amp;tr=udp%3A%2F%2Fexodus.desync.com%3A6969","seeders":0,"leechers":1,"uploader":"RoaElson","files":2,"time":1469583932,"description":"\nT in the Park 2016: Craig David's TS5\r\n\r\nCraig David brings Miami beach party vibes to Strathallan Castle.\r\nT in the Park\r\n\r\n\r\nFirst shown: 8 July 2016\r\nDuration: 30 minutes\r\n\r\nMedia Info:-\r\n\r\nGeneral\r\nFormat : MPEG-4\r\nFormat profile : Base Media\r\nCodec ID : isom (isom/iso2/avc1/mp41)\r\nFile size : 1.03 GiB\r\nDuration : 1h 1mn\r\nOverall bit rate mode : Variable\r\nOverall bit rate : 2 402 Kbps\r\n\r\nVideo\r\nID : 1\r\nFormat : AVC\r\nFormat/Info : Advanced Video Codec\r\nFormat profile :   \r\nFormat settings, CABAC : Yes\r\nFormat settings, ReFrames : 2 frames\r\nCodec ID : avc1\r\nCodec ID/Info : Advanced Video Coding\r\nDuration : 1h 1mn\r\nBit rate mode : Variable\r\nBit rate : 2 303 Kbps\r\nMaximum bit rate : 3 500 Kbps\r\nWidth : 1 280 pixels\r\nHeight : 720 pixels\r\nDisplay aspect ratio : 16:9\r\nFrame rate mode : Constant\r\nFrame rate : 25.000 fps\r\nColor space : YUV\r\nChroma subsampling : 4:2:0\r\nBit depth : 8 bits\r\nScan type : Progressive\r\nBits/(Pixel*Frame) : 0.100\r\nStream size : 1 007 MiB (96%)\r\n\r\nAudio\r\nID : 2\r\nFormat : AAC\r\nFormat/Info : Advanced Audio Codec\r\nFormat profile : LC\r\nCodec ID : 40\r\nDuration : 1h 1mn\r\nBit rate mode : Constant\r\nBit rate : 93.5 Kbps\r\nChannel(s) : 2 channels\r\nChannel positions : Front: L R\r\nSampling rate : 48.0 KHz\r\nFrame rate : 46.875 fps (1024 spf)\r\nCompression mode : Lossy\r\nStream size : 40.9 MiB (4%)","torrent":{"xt":"urn:btih:419b3d9066c33505826db8bf860a98afe722bbfe","amp;dn":"T+in+the+Park+2016+-+Craig+David%27s+TS5","amp;tr":["udp%3A%2F%2Ftracker.leechers-paradise.org%3A6969","udp%3A%2F%2Fzer0day.ch%3A1337","udp%3A%2F%2Fopen.demonii.com%3A1337","udp%3A%2F%2Ftracker.coppersurfer.tk%3A6969","udp%3A%2F%2Fexodus.desync.com%3A6969"],"infoHash":"419b3d9066c33505826db8bf860a98afe722bbfe","infoHashBuffer":{"type":"Buffer","data":[65,155,61,144,102,195,53,5,130,109,184,191,134,10,152,175,231,34,187,254]},"announce":[],"urlList":[]}}